<svg id="logo" xmlns="http://www.w3.org/2000/svg" viewBox="0 0 200 200">
  <path fill="#FFFFFF" d="M138.8 79.4c0-1.6-1.5-2.8-3.5-2.9v-.1c0-.5.1-1 .1-1.5 0-9.2-4-17.1-11.5-22.9-7.1-5.5-14.5-8.5-25.2-8.5s-18.1 3-25.2 8.5C66 57.8 62 65.7 62 75c0 .4 0 .7.1 1.1v.5c-1.9.1-3.5 1.4-3.5 2.9v19.7c0 1.6 1.6 3 3.6 3h1.2c.7.6 1.7 1 2.7 1H70c2.1 0 3.9-1.4 3.9-3.1V78.6c0-1.7-1.7-3.1-3.9-3.1h-2.5c.2-14.7 11.5-27.7 32-27.7 18.4 0 30.2 13 30.5 27.7h-2.5c-2.1 0-3.8 1.4-3.8 3.1v21.2c0 1.7 1.7 3.1 3.8 3.1h3.7c1 0 2-.3 2.7-1h1.3c2 0 3.6-1.3 3.6-3V79.4zm0 0"/>
  <path fill="#FFFFFF" d="M122.2 117.8c0 5.8-2.1 10.4-6.4 13.9-4.4 3.6-10.4 5.4-18.1 5.4-10.1 0-16-1.9-17.7-5.6-1.1-2.3-2.1-5.1-3.2-8.6-.4-1.6-.1-2.6 1-3.1 1.4-.6 2.4-.3 3.2.8 2.9 4.3 5.8 7.4 8.8 9.2 2.8 1.7 6.1 2.6 9.9 2.6 9.5 0 14.2-3.8 14.2-11.4 0-3-1-5.5-3.1-7.6-2-1.9-6.2-4.6-12.5-8-8-4.3-13.3-7.7-15.8-10.1-3.1-3-4.7-6.8-4.7-11.3 0-4.7 2-8.8 6-12.1 4-3.3 9.1-5 15.2-5 4.4 0 8.6.5 12.8 1.6 3.2.9 5 1.9 5.4 3.3.9 2.8 1.4 6.2 1.7 10.2.1 1.5-.4 2.3-1.5 2.5-1.3.2-2.3-.3-2.8-1.4-2.1-4.3-4.5-7.3-7.2-9-2.5-1.6-5.8-2.4-9.8-2.4-3.6 0-6.4.8-8.5 2.5-2.1 1.7-3.1 4-3.1 7.1 0 2.9 1 5.3 3.1 7.4 1.9 1.9 5.5 4.2 10.8 6.9 8.1 4 13.6 7.4 16.7 10.2 3.7 3.4 5.6 7.4 5.6 12zm19 19.9c-.8 1.3-1.6 3.2-2.2 5.6-.1.5-.5.6-1 .5-.5-.1-.6-.5-.5-1.2.2-.7-.2-1.1-1.2-1.3-1.8-.2-6-.4-12.6-.4-.2 0-.4-.1-.4-.4-.1-.3 0-.5.2-.7 4.2-3.4 7.1-6.2 8.6-8.1 1.3-1.7 2-3.4 2-5 0-2.3-1.2-3.4-3.6-3.4-1.6 0-3.5.8-5.7 2.3-.4.3-.8.2-1.2-.3-.2-.3-.3-.5-.3-.7 0-.3.2-.6.5-.9 2.3-2.2 4.9-3.4 7.9-3.4 4.7 0 7.1 1.8 7.1 5.3 0 1.6-.8 3.4-2.5 5.3-1.2 1.5-3.4 3.5-6.5 6-.3.2-.4.4-.4.5 0 .2.3.3.8.3 3.3 0 5.3 0 6.1-.1 1.4-.1 2.7-.3 3.7-.8.3-.2.7-.2 1-.1.4.4.5.6.2 1z"/></svg>
