<?xml version="1.0" encoding="utf-8"?>
<svg version="1.1" id="logo" xmlns="http://www.w3.org/2000/svg" xmlns:xlink="http://www.w3.org/1999/xlink" x="0px" y="0px"
	 viewBox="0 0 200 200" style="enable-background:new 0 0 200 200;" xml:space="preserve">
<style type="text/css">
	.st0{fill:none;stroke:#000000;stroke-miterlimit:10;}
</style>
<circle class="st0" cx="100" cy="100" r="98.5"/>
<circle class="st0" cx="100.1" cy="100.1" r="91.3"/>
<g>
	<path d="M138.8,79.4c0-1.6-1.5-2.8-3.5-2.9v-0.1c0-0.5,0.1-1,0.1-1.5c0-9.2-4-17.1-11.5-22.9c-7.1-5.5-14.5-8.5-25.2-8.5
		c-10.7,0-18.1,3-25.2,8.5C66,57.8,62,65.7,62,75c0,0.4,0,0.7,0.1,1.1l0,0.5c-1.9,0.1-3.5,1.4-3.5,2.9v19.7c0,1.6,1.6,3,3.6,3h1.2
		c0.7,0.6,1.7,1,2.7,1H70c2.1,0,3.9-1.4,3.9-3.1V78.6c0-1.7-1.7-3.1-3.9-3.1h-2.5c0.2-14.7,11.5-27.7,32-27.7
		c18.4,0,30.2,13,30.5,27.7h-2.5c-2.1,0-3.8,1.4-3.8,3.1v21.2c0,1.7,1.7,3.1,3.8,3.1h3.7c1,0,2-0.3,2.7-1h1.3c2,0,3.6-1.3,3.6-3
		V79.4z M138.8,79.4"/>
	<g>
		<g>
			<path d="M122.2,117.8c0,5.8-2.1,10.4-6.4,13.9c-4.4,3.6-10.4,5.4-18.1,5.4c-10.1,0-16-1.9-17.7-5.6c-1.1-2.3-2.1-5.1-3.2-8.6
				c-0.4-1.6-0.1-2.6,1-3.1c1.4-0.6,2.4-0.3,3.2,0.8c2.9,4.3,5.8,7.4,8.8,9.2c2.8,1.7,6.1,2.6,9.9,2.6c9.5,0,14.2-3.8,14.2-11.4
				c0-3-1-5.5-3.1-7.6c-2-1.9-6.2-4.6-12.5-8c-8-4.3-13.3-7.7-15.8-10.1c-3.1-3-4.7-6.8-4.7-11.3c0-4.7,2-8.8,6-12.1
				c4-3.3,9.1-5,15.2-5c4.4,0,8.6,0.5,12.8,1.6c3.2,0.9,5,1.9,5.4,3.3c0.9,2.8,1.4,6.2,1.7,10.2c0.1,1.5-0.4,2.3-1.5,2.5
				c-1.3,0.2-2.3-0.3-2.8-1.4c-2.1-4.3-4.5-7.3-7.2-9c-2.5-1.6-5.8-2.4-9.8-2.4c-3.6,0-6.4,0.8-8.5,2.5c-2.1,1.7-3.1,4-3.1,7.1
				c0,2.9,1,5.3,3.1,7.4c1.9,1.9,5.5,4.2,10.8,6.9c8.1,4,13.6,7.4,16.7,10.2C120.3,109.2,122.2,113.2,122.2,117.8z"/>
		</g>
		<g>
			<path d="M141.2,137.7c-0.8,1.3-1.6,3.2-2.2,5.6c-0.1,0.5-0.5,0.6-1,0.5c-0.5-0.1-0.6-0.5-0.5-1.2c0.2-0.7-0.2-1.1-1.2-1.3
				c-1.8-0.2-6-0.4-12.6-0.4c-0.2,0-0.4-0.1-0.4-0.4c-0.1-0.3,0-0.5,0.2-0.7c4.2-3.4,7.1-6.2,8.6-8.1c1.3-1.7,2-3.4,2-5
				c0-2.3-1.2-3.4-3.6-3.4c-1.6,0-3.5,0.8-5.7,2.3c-0.4,0.3-0.8,0.2-1.2-0.3c-0.2-0.3-0.3-0.5-0.3-0.7c0-0.3,0.2-0.6,0.5-0.9
				c2.3-2.2,4.9-3.4,7.9-3.4c4.7,0,7.1,1.8,7.1,5.3c0,1.6-0.8,3.4-2.5,5.3c-1.2,1.5-3.4,3.5-6.5,6c-0.3,0.2-0.4,0.4-0.4,0.5
				c0,0.2,0.3,0.3,0.8,0.3c3.3,0,5.3,0,6.1-0.1c1.4-0.1,2.7-0.3,3.7-0.8c0.3-0.2,0.7-0.2,1-0.1C141.4,137.1,141.5,137.3,141.2,137.7
				z"/>
		</g>
	</g>
</g>
</svg>
